<svg width="288" height="135" viewBox="0 0 288 135" fill="none" xmlns="http://www.w3.org/2000/svg">
<g clip-path="url(#clip0_1_4)">
<path d="M25.86 111.84C21.38 111.84 17.74 110.44 14.94 107.64C12.2333 104.84 10.88 100.64 10.88 95.04C10.88 92.7067 11.2533 89.6733 12 85.94L26.98 15.8L47.7 13L31.6 88.6C31.2267 90 31.04 91.4933 31.04 93.08C31.04 94.9467 31.46 96.3 32.3 97.14C33.2333 97.8867 34.7267 98.26 36.78 98.26C39.4867 98.26 42.0067 97.14 44.34 94.9C46.6733 92.5667 48.3533 89.58 49.38 85.94H55.26C51.8067 96.02 47.3733 102.88 41.96 106.52C36.5467 110.067 31.18 111.84 25.86 111.84ZM69.3442 111.84C62.4376 111.84 57.0709 110.067 53.2442 106.52C49.4176 102.88 47.5042 97.2333 47.5042 89.58C47.5042 83.14 48.7642 76.0467 51.2842 68.3C53.8042 60.5533 57.9109 53.88 63.6042 48.28C69.2976 42.5867 76.5309 39.74 85.3042 39.74C95.5709 39.74 100.704 44.22 100.704 53.18C100.704 58.4067 99.2109 63.2133 96.2242 67.6C93.2376 71.9867 89.2709 75.5333 84.3242 78.24C79.3776 80.8533 74.1042 82.3467 68.5042 82.72C68.3176 85.52 68.2242 87.3867 68.2242 88.32C68.2242 92.8933 69.0176 96.02 70.6042 97.7C72.1909 99.2867 74.7576 100.08 78.3042 100.08C83.3442 100.08 87.6376 98.9133 91.1842 96.58C94.8242 94.2467 98.7909 90.7 103.084 85.94H107.844C97.4842 103.207 84.6509 111.84 69.3442 111.84ZM69.6242 76C73.0776 75.8133 76.3442 74.6 79.4242 72.36C82.5976 70.12 85.1176 67.2733 86.9842 63.82C88.9442 60.3667 89.9242 56.7267 89.9242 52.9C89.9242 49.0733 88.7576 47.16 86.4242 47.16C83.0642 47.16 79.7509 50.1 76.4842 55.98C73.3109 61.86 71.0242 68.5333 69.6242 76ZM188.175 111.84C182.481 111.84 178.281 110.347 175.575 107.36C172.961 104.28 171.655 100.5 171.655 96.02C171.655 94.06 171.888 91.8667 172.355 89.44C172.821 86.92 173.288 84.4933 173.755 82.16C174.315 79.8267 174.688 78.3333 174.875 77.68C175.621 74.4133 176.321 71.1933 176.975 68.02C177.628 64.8467 177.955 62.28 177.955 60.32C177.955 55.56 176.275 53.18 172.915 53.18C170.488 53.18 168.341 54.3933 166.475 56.82C164.608 59.1533 163.115 62.2333 161.995 66.06L152.475 111H132.315L142.535 62.7C142.815 61.58 142.955 60.4133 142.955 59.2C142.955 55.0933 141.555 53.04 138.755 53.04C136.141 53.04 133.855 54.2533 131.895 56.68C130.028 59.0133 128.535 62.14 127.415 66.06L117.895 111H97.7347L112.575 41H132.735L131.195 48.28C135.955 42.96 141.648 40.3 148.275 40.3C156.488 40.3 161.295 44.3133 162.695 52.34C167.828 44.4067 174.315 40.44 182.155 40.44C186.915 40.44 190.695 41.7467 193.495 44.36C196.295 46.9733 197.695 50.94 197.695 56.26C197.695 58.9667 197.368 62 196.715 65.36C196.061 68.6267 195.128 72.64 193.915 77.4C193.168 80.2933 192.468 83.14 191.815 85.94C191.255 88.6467 190.975 90.7933 190.975 92.38C190.975 94.2467 191.395 95.6933 192.235 96.72C193.075 97.7467 194.521 98.26 196.575 98.26C199.375 98.26 201.615 97.28 203.295 95.32C204.975 93.2667 206.655 90.14 208.335 85.94H214.215C210.761 96.2067 206.748 103.113 202.175 106.66C197.695 110.113 193.028 111.84 188.175 111.84ZM222.188 111.84C217.708 111.84 214.068 110.44 211.268 107.64C208.561 104.84 207.208 100.64 207.208 95.04C207.208 92.7067 207.581 89.6733 208.328 85.94L217.848 41H238.008L227.928 88.6C227.648 89.72 227.508 90.8867 227.508 92.1C227.508 96.2067 228.908 98.26 231.708 98.26C234.321 98.26 236.561 97.1867 238.428 95.04C240.295 92.8 241.788 89.7667 242.908 85.94L252.428 41H272.588L262.508 88.6C262.135 90 261.948 91.4933 261.948 93.08C261.948 94.9467 262.368 96.3 263.208 97.14C264.141 97.8867 265.635 98.26 267.688 98.26C269.181 98.26 270.255 98.1667 270.908 97.98C271.655 97.7 272.121 97.5133 272.308 97.42C271.935 102.18 270.301 105.773 267.408 108.2C264.515 110.627 260.968 111.84 256.768 111.84C252.848 111.84 249.675 110.673 247.248 108.34C244.915 106.007 243.515 102.74 243.048 98.54C239.875 103.673 236.515 107.173 232.968 109.04C229.515 110.907 225.921 111.84 222.188 111.84Z" fill="#E6E6E6"/>
</g>
<defs>
<clipPath id="clip0_1_4">
<rect width="288" height="135" fill="white"/>
</clipPath>
</defs>
</svg>
